<?xml version="1.0" encoding="UTF-8"?>
<svg id="Layer_1" xmlns="http://www.w3.org/2000/svg" version="1.1" viewBox="0 0 512 512">
  <!-- Generator: Adobe Illustrator 29.1.0, SVG Export Plug-In . SVG Version: 2.1.0 Build 142)  -->
  <path d="M256,476.5c-8.8,0-16.8-3.6-22.6-9.4-5.8-5.8-9.4-13.8-9.4-22.6V118.2s-126.4,126.4-126.4,126.4c-12.5,12.5-32.7,12.5-45.3,0-12.5-12.5-12.5-32.7,0-45.3L188.1,63.6c37.4-37.4,98.3-37.4,135.8,0l135.8,135.8c12.5,12.5,12.5,32.7,0,45.3-12.5,12.5-32.7,12.5-45.3,0l-126.4-126.4v326.3c0,17.7-14.3,32-32,32h0Z"/>
</svg>