<?xml version="1.0" encoding="UTF-8"?>
<svg id="Layer_1" xmlns="http://www.w3.org/2000/svg" version="1.1" viewBox="0 0 70 134.23">
  <!-- Generator: Adobe Illustrator 29.1.0, SVG Export Plug-In . SVG Version: 2.1.0 Build 142)  -->
  <defs>
    <style>
      .st0 {
        fill: #fff;
      }

      .st0, .st1 {
        stroke: #000;
        stroke-miterlimit: 10;
      }
    </style>
  </defs>
  <path class="st0" d="M31.04,110.4c7.16-.83,8.25-10.69,1.59-12.61-3.37-.97-14.92-.8-18.74-.43-9.53.93-8.29,12.38-.34,13.07,4.19.36,13.4.44,17.5-.04Z"/>
  <path class="st0" d="M54.26,77.21c5.5-.41,8.07-6.65,4.37-10.83-3-3.39-10.53-1.55-14.63-2.11-1.72-.89-1.05-3,.73-3.28,4.83-.76,11.71,1.72,15.42-1.97,4.17-4.14,1.26-10.39-4.36-10.92-3.69-.35-7.84.25-11.58-.01-1.62-.3-1.59-2.91.05-3.29,3.65-.43,7.98.38,11.54-.05,2.12-.26,4.19-2.73,4.48-4.79.53-3.8-1.53-6.38-5.02-7.56-6.72-.49-14.24.6-20.86,0-1.11-.1-2.49-.42-2.31-1.85.34-2.74,4.3-.7,5.25-1.92.72-.93,2.45-5.95,2.93-7.37.98-2.89,2.1-5.37,1.36-8.45-1.37-5.68-8.49-8.09-13.02-4.5-3.19,2.53-4.43,9.27-6.13,13.19-2.1,4.83-5.45,10.78-9.19,14.51-3.01,3-5.67,3.64-6.07,8.62-.49,6.25-.47,16.94,0,23.2.37,5,3.72,8.62,8.64,9.39,12.49-.7,26.01.94,38.38.02Z"/>
  <path class="st0" d="M13.16,94.08c6.22.25,12.46.1,18.69.11,1.56,0,1.47.48,3.22-.36,6.12-2.96,4.41-11.63-2.45-12.26-5.76-.53-12.38.36-18.23.08-6.64,1.27-7.57,9.93-1.23,12.43Z"/>
  <path class="st0" d="M33.4,113.77c-6.27-.56-13.42.39-19.78.07-6.93,2.26-6.17,11.97,1.47,12.57,4.57.36,13.51.43,18.01-.04,2.42-.26,4.61-1.75,5.4-4.13,1.22-3.68-1.09-8.11-5.1-8.47Z"/>
  <path class="st0" d="M56.17,85.58c-1.45-1.4-2.8-3.4-3.98-5.03h-13.26c4.36,4.38,4.27,10.84-.22,15.1,2.3,5.23,7.57,10.64,13.29,11.88,1.55.34,4.66.06,5.67.49,1.05.45,1.26,2.87-.6,3.16-1.62.25-5.53-.32-7.18-.77-3.63-1-6.59-3.62-9.41-5.91-.34,2.44-1.29,5.12-3.35,6.57.87,1.23,2.55,2.19,3.46,3.49,2.36,3.36,1.95,8.71-.63,11.83h13.52c5.33,0,8.34-5.8,8.64-10.42.34-5.3.67-18.84-.34-23.64-.78-3.76-3.24-4.48-5.61-6.75Z"/>
  <path class="st1" d="M63.24,87.52c-1.86-2.7-5.2-4.17-6.8-7.1,7.4-2.42,9.98-11.71,3.87-17.01v-.37c6.77-3.25,6.81-13.27.26-16.88,3.63-3.79,4.33-9.38.98-13.61-1.04-1.32-4.1-3.29-5.75-3.52h-14.81c1.75-6.09,6.13-12.45,3.32-18.9-4.08-9.35-17.54-9-21.47.36-4.73,11.26-4.88,15.77-14.04,24.85-2.69,2.67-4.46,4.49-4.86,8.53,1.12,8.83-3.04,26.2,3.69,32.82.57.56,3.24,2.14,3.23,2.69-6.27,3.13-7.14,11.33-2.06,16.1-5.43,2.48-6.54,10.46-2.58,14.82.79.87,1.95,1.53,2.84,2.31-5.37,4.36-4.43,12.34,1.29,15.97,0,0,3.38,1.35,6.41,1.42.22,0,.53.03.91.06,1.6,0,3.34.1,4.94.1l10.92-.02c3.94,0,7.88-.01,11.82-.02,2.5,0,5-.06,7.49-.01,2.66.05,4.62-.69,5.83-1.2,2.06-.88,2.61-1.69,4.09-3.4,2.09-2.43,2.54-6.14,2.73-9.28.39-6.22.44-15.71-.01-21.9-.18-2.5-.78-4.74-2.21-6.81ZM7.23,67.81c-.47-6.26-.49-16.95,0-23.2.39-4.98,3.06-5.62,6.07-8.62,3.74-3.73,7.09-9.68,9.19-14.51,1.7-3.91,2.94-10.66,6.13-13.19,4.53-3.59,11.65-1.18,13.02,4.5.75,3.08-.38,5.56-1.36,8.45-.48,1.42-2.2,6.45-2.93,7.37-.96,1.22-4.92-.82-5.25,1.92-.18,1.43,1.2,1.75,2.31,1.85,6.62.61,14.14-.49,20.86,0,3.49,1.18,5.54,3.76,5.02,7.56-.29,2.07-2.36,4.53-4.48,4.79-3.56.43-7.89-.38-11.54.05-1.64.38-1.67,2.99-.05,3.29,3.74.27,7.89-.33,11.58.01,5.62.53,8.53,6.78,4.36,10.92-3.71,3.69-10.59,1.21-15.42,1.97-1.78.28-2.45,2.39-.73,3.28,4.1.57,11.63-1.28,14.63,2.11,3.7,4.18,1.13,10.42-4.37,10.83-12.37.93-25.89-.71-38.38-.02-4.93-.77-8.27-4.39-8.64-9.39ZM14.39,81.65c5.85.28,12.47-.6,18.23-.08,6.85.63,8.57,9.29,2.45,12.26-1.75.85-1.66.37-3.22.36-6.23-.01-12.47.14-18.69-.11-6.34-2.5-5.41-11.16,1.23-12.43ZM13.89,97.37c3.82-.37,15.36-.54,18.74.43,6.67,1.92,5.58,11.77-1.59,12.61-4.1.48-13.31.4-17.5.04-7.95-.69-9.19-12.14.34-13.07ZM38.49,122.23c-.79,2.38-2.98,3.88-5.4,4.13-4.5.47-13.44.4-18.01.04-7.65-.6-8.41-10.31-1.47-12.57,6.36.32,13.52-.63,19.78-.07,4.01.36,6.32,4.79,5.1,8.47ZM62.12,115.98c-.3,4.62-3.3,10.42-8.64,10.42h-13.52c2.58-3.12,2.99-8.47.63-11.83-.91-1.3-2.59-2.26-3.46-3.49,2.06-1.45,3.02-4.13,3.35-6.57,2.82,2.29,5.79,4.91,9.41,5.91,1.65.45,5.57,1.03,7.18.77,1.86-.29,1.65-2.72.6-3.16-1.02-.43-4.12-.16-5.67-.49-5.72-1.24-10.99-6.64-13.29-11.88,4.49-4.26,4.57-10.72.22-15.1h13.26c1.18,1.64,2.53,3.64,3.98,5.03,2.37,2.27,4.83,2.99,5.61,6.75,1,4.8.68,18.34.34,23.64Z"/>
</svg>