<?xml version="1.0" encoding="UTF-8"?>
<svg id="Layer_1" xmlns="http://www.w3.org/2000/svg" version="1.1" viewBox="0 0 286.8 131.17">
  <!-- Generator: Adobe Illustrator 29.1.0, SVG Export Plug-In . SVG Version: 2.1.0 Build 142)  -->
  <defs>
    <style>
      .st0 {
        fill: #231f20;
      }

      .st1 {
        stroke: #000;
        stroke-miterlimit: 10;
      }
    </style>
  </defs>
  <g>
    <path class="st0" d="M16.72,62.37v-9.08H3.36v-21.43h32.58v21.43h-13.36v9.08h16v4.8H.72v-4.8h16ZM30.08,48.48v-11.82H9.22v11.82h20.85Z"/>
    <path class="st0" d="M56.89,65.34c-7.69,0-11.63-5.81-11.63-17.11s3.94-17.11,11.63-17.11c4.85,0,8.17,2.31,10.04,6.92h7.69v-8.17h5.86v42.81h-5.86v-14.99h-7.4c-1.78,5.09-5.19,7.64-10.33,7.64ZM52.61,57.42c.96,2.07,2.4,3.12,4.28,3.12s3.32-1.06,4.32-3.12c.96-2.07,1.44-5.14,1.44-9.18s-.48-7.16-1.44-9.23c-1.01-2.07-2.45-3.08-4.32-3.08s-3.32,1.01-4.28,3.08c-1.01,1.97-1.49,5.05-1.49,9.23s.48,7.21,1.49,9.18ZM68.51,48.24c0,1.1-.1,2.69-.24,4.66h6.34v-10.04h-6.44c.24,1.35.34,3.12.34,5.38Z"/>
    <path class="st0" d="M103.93,45.74v-9.18h-15.33v-4.76h21.19v18.69h-14.85v9.9h17.97v4.76h-23.83v-19.41h14.85ZM117.19,29.88h5.86v15.38h5.09v4.8h-5.09v22.63h-5.86V29.88Z"/>
    <path class="st0" d="M135.93,63.23c2.07,0,3.75,1.68,3.75,3.75s-1.68,3.75-3.75,3.75-3.75-1.68-3.75-3.75,1.68-3.75,3.75-3.75ZM132.85,31.57h6.2l-.48,26.67h-5.24l-.48-26.67Z"/>
  </g>
  <g>
    <path class="st0" d="M49.26,82.71h14.93l7.67,19.29c1.36,3.42,2.48,6.49,3.36,9.2h.24c.89-2.66,2.01-5.78,3.36-9.26l7.55-19.24h14.93v46.08h-12.15v-17.82c0-2.77.29-6.2.83-10.27h-.24l-3.72,10.21-7.14,17.47h-7.14l-7.08-17.47-3.89-10.21h-.24c.65,3.72.94,7.14.94,10.27v17.82h-12.21v-46.08Z"/>
    <path class="st0" d="M107.92,82.71h18.76c12.69,0,19.47,4.25,19.47,11.98,0,5.25-3.13,8.85-8.97,9.97v.24c7.08,1.18,10.86,5.25,10.86,11.21,0,8.08-5.84,12.69-15.99,12.69h-24.13v-46.08ZM126.5,101.12c4.78,0,7.14-1.42,7.14-4.31,0-2.66-2.48-4.13-7.49-4.13h-5.72v8.44h6.08ZM127.45,118.76c5.61,0,8.08-1.48,8.08-4.54s-2.95-4.9-8.08-4.9h-7.02v9.44h7.02Z"/>
    <path class="st0" d="M163.8,92.86h-13.51v-10.15h39.53v10.15h-13.51v35.99h-12.51v-35.99Z"/>
    <path class="st0" d="M195.2,82.71h12.33v46.08h-12.51l.18-46.08Z"/>
  </g>
  <path class="st1" d="M236.76,128.97c1.6,0,3.34.1,4.94.1,3.64,0,7.28-.01,10.92-.02l11.82-.02c2.5,0,5-.06,7.49-.01,2.66.05,4.62-.69,5.83-1.2,2.06-.88,2.61-1.69,4.09-3.4,2.09-2.43,2.54-6.14,2.73-9.28.39-6.22.44-15.71-.01-21.9-.18-2.5-.78-4.74-2.21-6.81-1.86-2.7-5.2-4.17-6.8-7.1,7.4-2.42,9.98-11.71,3.87-17.01v-.37c6.77-3.25,6.81-13.27.26-16.87,3.63-3.79,4.33-9.38.98-13.61-1.04-1.32-4.1-3.29-5.75-3.52h-14.81c1.75-6.09,6.13-12.45,3.32-18.9-4.08-9.35-17.54-9-21.47.36-4.73,11.26-4.88,15.77-14.04,24.85-2.69,2.67-4.46,4.49-4.86,8.53,1.12,8.83-3.04,26.2,3.69,32.82.57.56,3.24,2.14,3.23,2.69-6.27,3.13-7.14,11.33-2.06,16.1-5.43,2.48-6.54,10.46-2.58,14.82.79.87,1.95,1.53,2.84,2.31-5.37,4.36-4.43,12.34,1.29,15.97,0,0,3.38,1.35,6.41,1.42.22,0,.53.03.91.06ZM280.89,91.24c1,4.8.68,18.34.34,23.64-.3,4.62-3.3,10.42-8.64,10.42h-13.52c2.58-3.12,2.99-8.47.63-11.83-.91-1.3-2.59-2.26-3.46-3.49,2.06-1.45,3.02-4.13,3.35-6.57,2.82,2.29,5.79,4.91,9.41,5.91,1.65.45,5.57,1.03,7.18.77,1.86-.29,1.65-2.72.6-3.16-1.02-.43-4.12-.16-5.67-.49-5.72-1.24-10.99-6.64-13.29-11.88,4.49-4.26,4.57-10.72.22-15.1h13.26c1.18,1.64,2.53,3.64,3.98,5.03,2.37,2.27,4.83,2.99,5.61,6.75ZM226.35,66.71c-.47-6.26-.49-16.95,0-23.2.39-4.98,3.06-5.62,6.07-8.62,3.74-3.73,7.09-9.68,9.19-14.51,1.7-3.91,2.94-10.66,6.13-13.19,4.53-3.59,11.65-1.18,13.02,4.5.75,3.08-.38,5.56-1.36,8.45-.48,1.42-2.2,6.45-2.93,7.37-.96,1.22-4.92-.82-5.25,1.92-.18,1.43,1.2,1.75,2.31,1.85,6.62.61,14.14-.49,20.86,0,3.49,1.18,5.54,3.76,5.02,7.56-.29,2.07-2.36,4.53-4.48,4.79-3.56.43-7.89-.38-11.54.05-1.64.38-1.67,2.99-.05,3.29,3.74.27,7.89-.33,11.58.01,5.62.53,8.53,6.78,4.36,10.92-3.71,3.69-10.59,1.21-15.42,1.97-1.78.28-2.45,2.39-.73,3.28,4.1.57,11.63-1.28,14.63,2.11,3.7,4.18,1.13,10.42-4.37,10.83-12.37.93-25.89-.71-38.38-.02-4.93-.77-8.27-4.39-8.64-9.39ZM233.51,80.55c5.85.28,12.47-.6,18.23-.08,6.85.63,8.57,9.29,2.45,12.26-1.75.85-1.66.37-3.22.36-6.23-.01-12.47.14-18.69-.11-6.34-2.5-5.41-11.16,1.23-12.43ZM233,96.27c3.82-.37,15.36-.54,18.74.43,6.67,1.92,5.58,11.77-1.59,12.61-4.1.48-13.31.4-17.5.04-7.95-.69-9.19-12.14.34-13.07ZM232.73,112.74c6.36.32,13.52-.63,19.78-.07,4.01.36,6.32,4.79,5.1,8.47-.79,2.38-2.98,3.88-5.4,4.13-4.5.47-13.44.4-18.01.04-7.65-.6-8.41-10.31-1.47-12.57Z"/>
</svg>